<?xml version="1.0"?>
<svg style="opacity:.09" xmlns="http://www.w3.org/2000/svg" viewBox="0 0 24 24">
    <path style="text-indent:0;text-align:start;line-height:normal;text-transform:none;block-progression:tb;-inkscape-font-specification:Bitstream Vera Sans" d="M 5 1.4375 L 4.625 2.71875 C 4.625 2.71875 4.3310263 3.6943918 4.21875 4.9375 C 4.126165 5.9625862 4.243734 7.176801 4.71875 8.34375 C 3.7856924 9.4168882 3.03125 10.40625 3.03125 10.40625 L 1.96875 12.03125 L 3.3125 11.96875 C 3.2046004 12.209668 3.1374457 12.269885 3.0625 12.5 L 2.5625 13.96875 L 4.09375 13.78125 L 4.15625 13.78125 C 4.100034 13.970533 3.9834486 14.083528 3.96875 14.3125 L 3.875 15.59375 L 5.15625 15.375 C 5.241393 15.3806 5.3802335 15.41478 5.53125 15.4375 C 5.8332829 15.48293 6.2257689 15.539282 6.59375 15.65625 C 6.9617311 15.773218 7.2933903 15.948087 7.5 16.09375 C 7.7066097 16.239413 7.7495833 16.310144 7.75 16.3125 C 7.991008 17.672615 8.1688961 19.040373 8.5 20.03125 C 8.7629765 20.823102 9.402085 21.27383 10.03125 21.5625 C 10.660415 21.85117 11.332837 22 12 22 C 12.667163 22 13.34094 21.851852 13.96875 21.5625 C 14.59656 21.273148 15.237436 20.819912 15.5 20.03125 C 15.829634 19.04113 16.008119 17.670982 16.25 16.3125 C 16.250444 16.31 16.29323 16.23943 16.5 16.09375 C 16.706773 15.948074 17.038208 15.773185 17.40625 15.65625 C 17.774292 15.539315 18.166664 15.482997 18.46875 15.4375 C 18.619793 15.41475 18.758471 15.38066 18.84375 15.375 L 20.125 15.59375 L 20.03125 14.3125 C 20.01655 14.083528 19.899966 13.970533 19.84375 13.78125 L 19.90625 13.78125 L 21.34375 13.9375 L 20.96875 12.53125 C 20.89494 12.263465 20.83261 12.22817 20.71875 11.96875 L 22.03125 12.03125 L 20.96875 10.40625 C 20.96875 10.40625 20.21832 9.3907321 19.3125 8.34375 C 19.78321 7.1799102 19.873458 5.9595495 19.78125 4.9375 C 19.669117 3.6945961 19.375 2.71875 19.375 2.71875 L 19 1.4375 L 17.875 2.15625 L 14.8125 4.15625 C 14.425854 4.0454626 13.42784 3.71875 12 3.71875 C 10.57216 3.71875 9.5757702 4.0455614 9.1875 4.15625 L 6.125 2.15625 L 5 1.4375 z M 6.28125 4.65625 L 6.40625 4.71875 C 7.2892152 5.5335131 8.3199641 6.9575874 6.6875 8.09375 L 6.65625 8.03125 C 6.2128848 7.3233791 6.0945263 6.1231418 6.1875 5.09375 C 6.2100431 4.8441557 6.247358 4.8697061 6.28125 4.65625 z M 17.71875 4.6875 C 17.750665 4.8581987 17.791518 4.8612115 17.8125 5.09375 C 17.90537 6.1230961 17.78663 7.3239523 17.34375 8.03125 L 17.1875 8.3125 C 15.193821 7.5276637 16.701132 5.6678021 17.71875 4.6875 z M 8.53125 9.84375 C 9.8452061 9.8719277 11 10.59025 11 13 L 13 13 C 13 9.2931162 15.789103 9.6684569 17.59375 10.28125 L 18.25 11.40625 C 18.25 11.40625 18.32295 11.5863 18.34375 11.625 L 16.15625 11.40625 L 17.40625 13.1875 C 17.40625 13.1875 17.551939 13.38924 17.65625 13.5625 C 17.380492 13.61966 17.11528 13.6538 16.8125 13.75 C 16.318542 13.90694 15.807602 14.141957 15.34375 14.46875 C 14.879898 14.795543 14.405306 15.270248 14.28125 15.96875 C 14.033131 17.362268 13.806116 18.76837 13.59375 19.40625 C 13.58955 19.41892 13.568145 19.466998 13.5 19.53125 L 13.5 18.96875 C 13.126 18.84775 12.626 18.75 12 18.75 C 11.374 18.75 10.874 18.84775 10.5 18.96875 L 10.5 19.53125 C 10.431982 19.466528 10.409762 19.416824 10.40625 19.40625 C 10.193354 18.769127 9.965742 17.362635 9.71875 15.96875 C 9.5951667 15.270106 9.1200153 14.795712 8.65625 14.46875 C 8.1924847 14.141788 7.6815189 13.907032 7.1875 13.75 C 6.8846829 13.653745 6.6196211 13.619681 6.34375 13.5625 C 6.4480609 13.38924 6.59375 13.1875 6.59375 13.1875 L 7.84375 11.40625 L 5.65625 11.625 C 5.681304 11.57704 5.78125 11.375 5.78125 11.375 L 6.40625 10.28125 C 7.0500917 10.05825 7.8032052 9.8281371 8.53125 9.84375 z M 8.625 12.75 C 8.625 12.75 9.2735 14.451 10.3125 15.375 C 10.3125 15.375 10.69075 13.79025 10.34375 13.40625 C 9.99775 13.02125 8.625 12.75 8.625 12.75 z M 15.375 12.75 C 15.375 12.75 13.971 13.02125 13.625 13.40625 C 13.278 13.79025 13.6875 15.375 13.6875 15.375 C 14.7265 14.451 15.375 12.75 15.375 12.75 z" overflow="visible" font-family="Bitstream Vera Sans"/>
</svg>
